<?xml version="1.0" encoding="UTF-8"?><svg id="Layer_1" xmlns="http://www.w3.org/2000/svg" xmlns:xlink="http://www.w3.org/1999/xlink" viewBox="0 0 168.9 19.87"><defs><style>.cls-1{fill:#fff;}.cls-2{fill:url(#linear-gradient);}</style><linearGradient id="linear-gradient" x1="0" y1="9.93" x2="78.93" y2="9.93" gradientUnits="userSpaceOnUse"><stop offset="0" stop-color="#ed3f36"/><stop offset="1" stop-color="#b01f27"/></linearGradient></defs><path class="cls-2" d="M16.23,7.63c.42,.42,.64,1,.64,1.72,0,.53-.09,1.02-.28,1.49-.19,.47-.46,.87-.81,1.23-.43,.43-.97,.76-1.6,.99-.63,.22-1.31,.33-2.03,.33h-1.35l1.77-6.55h1.16c.62,0,1.13,.07,1.54,.22,.4,.15,.72,.34,.96,.57Zm12.32,.52c0,.3-.07,.56-.2,.78-.13,.22-.32,.41-.56,.56-.24,.15-.52,.26-.84,.34-.32,.08-.67,.12-1.04,.12h-2.13l.84-3.1h2c.76,0,1.28,.15,1.58,.45,.23,.23,.34,.52,.34,.87Zm0,0c0,.3-.07,.56-.2,.78-.13,.22-.32,.41-.56,.56-.24,.15-.52,.26-.84,.34-.32,.08-.67,.12-1.04,.12h-2.13l.84-3.1h2c.76,0,1.28,.15,1.58,.45,.23,.23,.34,.52,.34,.87Zm0,0c0,.3-.07,.56-.2,.78-.13,.22-.32,.41-.56,.56-.24,.15-.52,.26-.84,.34-.32,.08-.67,.12-1.04,.12h-2.13l.84-3.1h2c.76,0,1.28,.15,1.58,.45,.23,.23,.34,.52,.34,.87Zm0,0c0,.3-.07,.56-.2,.78-.13,.22-.32,.41-.56,.56-.24,.15-.52,.26-.84,.34-.32,.08-.67,.12-1.04,.12h-2.13l.84-3.1h2c.76,0,1.28,.15,1.58,.45,.23,.23,.34,.52,.34,.87ZM78.93,0l-5.2,19.87H0L5.2,0H78.93ZM19.34,9.26c0-1.33-.39-2.4-1.18-3.18-.41-.41-.96-.75-1.65-1.01-.68-.26-1.55-.39-2.61-.39h-3.17l-2.92,10.87h4.04c1.26,0,2.36-.17,3.31-.51,.94-.34,1.74-.84,2.39-1.49,.59-.59,1.03-1.25,1.33-1.97,.3-.72,.45-1.5,.45-2.31Zm11.72-1.3c0-.9-.28-1.63-.84-2.19-.36-.36-.83-.63-1.39-.81-.56-.18-1.25-.27-2.06-.27h-3.96l-2.92,10.87h2.39l.93-3.48h1.79l1.68,3.48h2.72l-1.85-3.71c1.16-.27,2.03-.74,2.62-1.4,.59-.67,.88-1.49,.88-2.48Zm5.54-3.28h-2.39l-2.92,10.87h2.39l2.92-10.87Zm5.08,10.94l7.28-10.94h-2.69l-4.81,7.58-.75-7.58h-2.56l1.41,10.94h2.11Zm8.89-2.2l.62-2.3h5.04l.57-2.1h-5.04l.59-2.22h5.74l.57-2.13h-8.12l-2.92,10.87h8.2l.57-2.13h-5.84Zm19.9-8.74h-2.36l-1.86,6.91-3.17-6.91h-2.2l-2.92,10.87h2.36l1.91-7.12,3.29,7.12h2.03l2.92-10.87ZM28.21,7.28c.23,.23,.34,.52,.34,.87,0,.3-.07,.56-.2,.78-.13,.22-.32,.41-.56,.56-.24,.15-.52,.26-.84,.34-.32,.08-.67,.12-1.04,.12h-2.13l.84-3.1h2c.76,0,1.28,.15,1.58,.45Zm.34,.87c0,.3-.07,.56-.2,.78-.13,.22-.32,.41-.56,.56-.24,.15-.52,.26-.84,.34-.32,.08-.67,.12-1.04,.12h-2.13l.84-3.1h2c.76,0,1.28,.15,1.58,.45,.23,.23,.34,.52,.34,.87Zm0,0c0,.3-.07,.56-.2,.78-.13,.22-.32,.41-.56,.56-.24,.15-.52,.26-.84,.34-.32,.08-.67,.12-1.04,.12h-2.13l.84-3.1h2c.76,0,1.28,.15,1.58,.45,.23,.23,.34,.52,.34,.87Zm0,0c0,.3-.07,.56-.2,.78-.13,.22-.32,.41-.56,.56-.24,.15-.52,.26-.84,.34-.32,.08-.67,.12-1.04,.12h-2.13l.84-3.1h2c.76,0,1.28,.15,1.58,.45,.23,.23,.34,.52,.34,.87Zm0,0c0,.3-.07,.56-.2,.78-.13,.22-.32,.41-.56,.56-.24,.15-.52,.26-.84,.34-.32,.08-.67,.12-1.04,.12h-2.13l.84-3.1h2c.76,0,1.28,.15,1.58,.45,.23,.23,.34,.52,.34,.87Z"/><g><path class="cls-1" d="M91.02,15.66h-1.32l-1.27-2.87h-5.91l-1.29,2.87h-1.26l4.95-10.94h1.15l4.95,10.94Zm-5.54-9.5l-2.48,5.54h4.95l-2.47-5.54Z"/><path class="cls-1" d="M98.51,7.64h1.18V15.66h-1.18v-1.4c-.27,.43-.62,.8-1.06,1.11-.43,.3-1,.46-1.69,.46-.49,0-.92-.08-1.3-.23s-.7-.38-.96-.66c-.26-.28-.47-.62-.61-1.02s-.21-.83-.21-1.3V7.64h1.2v4.69c0,.75,.19,1.33,.57,1.77,.38,.43,.93,.65,1.65,.65,.34,0,.66-.06,.95-.18,.29-.12,.55-.29,.76-.51s.38-.49,.5-.8,.19-.65,.19-1.02V7.64Z"/><path class="cls-1" d="M103.99,13.38c0,.5,.12,.84,.37,1.04,.25,.2,.57,.29,.98,.29,.21,0,.4-.02,.58-.06s.38-.11,.58-.22v1.02c-.21,.11-.43,.2-.66,.26-.23,.06-.5,.08-.78,.08-.32,0-.62-.04-.9-.12s-.52-.21-.72-.4c-.2-.18-.36-.42-.47-.71-.11-.29-.17-.64-.17-1.04v-4.84h-1.12v-1.06h1.12v-2.42h1.2v2.42h2.55v1.06h-2.55v4.69Z"/><path class="cls-1" d="M115.96,13.26c-.21,.51-.5,.96-.88,1.34-.37,.38-.82,.69-1.33,.91s-1.08,.33-1.68,.33-1.15-.11-1.66-.33c-.51-.22-.95-.52-1.32-.9-.37-.38-.66-.82-.87-1.33s-.31-1.04-.31-1.61,.1-1.11,.31-1.62,.5-.96,.87-1.34c.37-.38,.82-.69,1.33-.91,.51-.22,1.07-.33,1.68-.33s1.16,.11,1.67,.33c.51,.22,.95,.52,1.33,.9,.37,.38,.66,.82,.87,1.33s.31,1.04,.31,1.61-.11,1.11-.32,1.62Zm-1.13-2.82c-.15-.38-.36-.71-.63-1-.27-.28-.58-.51-.95-.67s-.75-.25-1.18-.25-.83,.08-1.2,.24-.67,.38-.92,.67c-.25,.28-.45,.61-.6,.99-.15,.38-.22,.78-.22,1.21s.08,.84,.23,1.22c.15,.38,.36,.71,.62,.99,.26,.28,.58,.5,.94,.67,.36,.17,.75,.25,1.18,.25s.83-.08,1.2-.24c.36-.16,.67-.38,.93-.66,.26-.28,.46-.61,.61-.98,.14-.38,.22-.78,.22-1.21s-.08-.84-.22-1.22Z"/><path class="cls-1" d="M130.83,15.36c-.74,.33-1.57,.49-2.49,.49-.86,0-1.63-.15-2.31-.43-.68-.29-1.26-.69-1.74-1.2s-.85-1.1-1.1-1.79c-.25-.68-.38-1.41-.38-2.19s.13-1.46,.4-2.14,.63-1.28,1.11-1.8c.48-.52,1.05-.93,1.71-1.23,.67-.31,1.41-.46,2.23-.46,.46,0,.87,.03,1.25,.09,.38,.06,.73,.16,1.06,.28,.33,.12,.63,.28,.92,.46,.29,.18,.56,.39,.83,.61l-.79,.93c-.21-.19-.42-.35-.65-.5-.23-.15-.47-.28-.74-.39-.26-.11-.55-.19-.87-.26-.32-.06-.67-.09-1.05-.09-.6,0-1.15,.12-1.66,.36-.51,.24-.94,.56-1.3,.96s-.65,.88-.85,1.42c-.21,.54-.31,1.12-.31,1.73,0,.65,.1,1.26,.3,1.81,.2,.55,.49,1.03,.86,1.44,.37,.4,.82,.72,1.35,.95,.53,.23,1.12,.34,1.79,.34,.62,0,1.21-.11,1.75-.32,.55-.21,1.01-.47,1.38-.77v-2.71h-3.31v-1.09h4.49v4.32c-.51,.45-1.13,.84-1.87,1.17Z"/><path class="cls-1" d="M136.46,15.66h-1.2V7.64h1.2v2.1c.14-.33,.33-.64,.54-.92,.22-.28,.47-.52,.75-.72s.58-.35,.92-.46c.33-.1,.69-.15,1.07-.14v1.29h-.09c-.44,0-.85,.08-1.23,.23-.39,.15-.73,.39-1.02,.7-.29,.31-.52,.7-.68,1.16-.17,.46-.25,.99-.25,1.59v3.2Z"/><path class="cls-1" d="M148.76,13.26c-.21,.51-.5,.96-.88,1.34-.37,.38-.82,.69-1.33,.91s-1.08,.33-1.68,.33-1.15-.11-1.66-.33c-.51-.22-.95-.52-1.32-.9-.37-.38-.66-.82-.87-1.33s-.31-1.04-.31-1.61,.1-1.11,.31-1.62,.5-.96,.87-1.34c.37-.38,.82-.69,1.33-.91,.51-.22,1.07-.33,1.68-.33s1.16,.11,1.67,.33c.51,.22,.95,.52,1.33,.9,.37,.38,.66,.82,.87,1.33s.31,1.04,.31,1.61-.11,1.11-.32,1.62Zm-1.13-2.82c-.15-.38-.36-.71-.63-1-.27-.28-.58-.51-.95-.67s-.75-.25-1.18-.25-.83,.08-1.2,.24-.67,.38-.92,.67c-.25,.28-.45,.61-.6,.99-.15,.38-.22,.78-.22,1.21s.08,.84,.23,1.22c.15,.38,.36,.71,.62,.99,.26,.28,.58,.5,.94,.67,.36,.17,.75,.25,1.18,.25s.83-.08,1.2-.24c.36-.16,.67-.38,.93-.66,.26-.28,.46-.61,.61-.98,.14-.38,.22-.78,.22-1.21s-.08-.84-.22-1.22Z"/><path class="cls-1" d="M156.93,7.64h1.18V15.66h-1.18v-1.4c-.27,.43-.62,.8-1.06,1.11-.43,.3-1,.46-1.69,.46-.49,0-.92-.08-1.3-.23s-.7-.38-.96-.66c-.26-.28-.47-.62-.61-1.02s-.21-.83-.21-1.3V7.64h1.2v4.69c0,.75,.19,1.33,.57,1.77,.38,.43,.93,.65,1.65,.65,.34,0,.66-.06,.95-.18,.29-.12,.55-.29,.76-.51s.38-.49,.5-.8,.19-.65,.19-1.02V7.64Z"/><path class="cls-1" d="M168.58,13.41c-.22,.52-.5,.96-.86,1.31-.36,.36-.77,.63-1.23,.82-.46,.19-.93,.29-1.42,.29-.37,0-.71-.05-1.02-.14-.31-.09-.59-.22-.84-.37-.25-.16-.47-.34-.68-.54-.2-.21-.38-.42-.54-.65v4.02h-1.2V7.64h1.2v1.61c.17-.24,.35-.47,.55-.68,.2-.22,.43-.41,.68-.57,.25-.16,.52-.29,.83-.39,.31-.1,.64-.15,1.02-.15,.48,0,.94,.09,1.41,.28,.46,.19,.87,.46,1.23,.81s.65,.79,.87,1.31c.22,.52,.33,1.11,.33,1.77s-.11,1.25-.33,1.77Zm-1.13-3.04c-.15-.38-.35-.71-.61-.98-.26-.27-.56-.48-.9-.63-.34-.14-.7-.22-1.09-.22s-.73,.07-1.08,.22-.66,.36-.93,.63c-.27,.27-.49,.59-.65,.97-.16,.38-.24,.8-.24,1.27s.08,.89,.24,1.27c.16,.39,.38,.71,.65,.98,.27,.27,.58,.48,.93,.63s.71,.22,1.08,.22,.75-.07,1.09-.21,.65-.34,.9-.6,.46-.59,.61-.97c.15-.39,.23-.82,.23-1.3s-.08-.9-.23-1.28Z"/></g></svg>